<?xml version="1.0" encoding="UTF-8" standalone="no"?>
<svg
   xmlns:dc="http://purl.org/dc/elements/1.1/"
   xmlns:cc="http://creativecommons.org/ns#"
   xmlns:rdf="http://www.w3.org/1999/02/22-rdf-syntax-ns#"
   xmlns:svg="http://www.w3.org/2000/svg"
   xmlns="http://www.w3.org/2000/svg"
   xmlns:xlink="http://www.w3.org/1999/xlink"
   xmlns:sodipodi="http://sodipodi.sourceforge.net/DTD/sodipodi-0.dtd"
   xmlns:inkscape="http://www.inkscape.org/namespaces/inkscape"
   viewBox="0 0 212.76737 75.76"
   version="1.1"
   id="svg3831"
   sodipodi:docname="Jira_Software-blue-short.svg"
   inkscape:version="0.92.2 5c3e80d, 2017-08-06"
   width="212.76736"
   height="75.760002">
  <metadata
     id="metadata3835">
    <rdf:RDF>
      <cc:Work
         rdf:about="">
        <dc:format>image/svg+xml</dc:format>
        <dc:type
           rdf:resource="http://purl.org/dc/dcmitype/StillImage" />
        <dc:title>Jira Software-blue</dc:title>
      </cc:Work>
    </rdf:RDF>
  </metadata>
  <sodipodi:namedview
     pagecolor="#ffffff"
     bordercolor="#666666"
     borderopacity="1"
     objecttolerance="10"
     gridtolerance="10"
     guidetolerance="10"
     inkscape:pageopacity="0"
     inkscape:pageshadow="2"
     inkscape:window-width="1765"
     inkscape:window-height="768"
     id="namedview3833"
     showgrid="false"
     inkscape:zoom="2.2436297"
     inkscape:cx="287.96039"
     inkscape:cy="0.39375507"
     inkscape:window-x="0"
     inkscape:window-y="0"
     inkscape:window-maximized="0"
     inkscape:current-layer="Layer_2"
     fit-margin-top="0"
     fit-margin-left="0"
     fit-margin-right="0"
     fit-margin-bottom="0" />
  <defs
     id="defs3795">
    <style
       id="style3787">.cls-1{fill:#253858;}.cls-2{fill:#2684ff;}.cls-3{fill:url(#linear-gradient);}.cls-4{fill:url(#linear-gradient-2);}</style>
    <linearGradient
       id="linear-gradient"
       x1="34.639999"
       y1="15.35"
       x2="19"
       y2="30.99"
       gradientUnits="userSpaceOnUse">
      <stop
         offset="0.18"
         stop-color="#0052cc"
         id="stop3789" />
      <stop
         offset="1"
         stop-color="#2684ff"
         id="stop3791" />
    </linearGradient>
    <linearGradient
       id="linear-gradient-2"
       x1="38.779999"
       y1="60.279999"
       x2="54.389999"
       y2="44.669998"
       xlink:href="#linear-gradient" />
    <linearGradient
       inkscape:collect="always"
       xlink:href="#linear-gradient"
       id="linearGradient3856"
       gradientUnits="userSpaceOnUse"
       x1="34.639999"
       y1="15.35"
       x2="19"
       y2="30.99" />
  </defs>
  <title
     id="title3797">Jira Software-blue</title>
  <g
     id="Layer_2"
     data-name="Layer 2"
     transform="translate(-0.00263987)">
    <path
       style="fill:#253858"
       inkscape:connector-curvature="0"
       id="path3799"
       d="m 109.28,9 h 7.92 v 40.2 c 0,10.65 -4.66,18 -15.58,18 a 28.14,28.14 0 0 1 -9.5,-1.5 V 58 a 22.19,22.19 0 0 0 8.18,1.5 c 6.69,0 9,-4 9,-9.77 z"
       class="cls-1" />
    <path
       style="fill:#253858"
       inkscape:connector-curvature="0"
       id="path3801"
       d="m 131.63,5.91 a 4.94,4.94 0 0 1 5.28,5.28 5.28,5.28 0 1 1 -10.56,0 4.94,4.94 0 0 1 5.28,-5.28 z m -3.87,16.9 h 7.57 v 44 h -7.57 z"
       class="cls-1" />
    <path
       style="fill:#253858"
       inkscape:connector-curvature="0"
       id="path3803"
       d="m 146.76,22.8 h 7.39 v 7.74 c 2.55,-5.19 7,-8.89 15.58,-8.36 v 7.39 c -9.68,-1 -15.58,1.94 -15.58,11.26 v 26 h -7.39 z"
       class="cls-1" />
    <path
       style="fill:#253858"
       inkscape:connector-curvature="0"
       id="path3805"
       d="m 205.19,58.88 c -2.82,5.81 -8.1,8.8 -14.87,8.8 -11.7,0 -17.6,-9.94 -17.6,-22.88 0,-12.41 6.16,-22.88 18.48,-22.88 6.42,0 11.35,2.9 14,8.62 V 22.8 h 7.57 v 44 h -7.57 z m -12.85,1.76 c 6.78,0 12.85,-4.31 12.85,-14.08 V 43 c 0,-9.77 -5.54,-14.08 -12,-14.08 -8.54,0 -12.94,5.63 -12.94,15.84 0.04,10.6 4.26,15.88 12.1,15.88 z"
       class="cls-1" />
    <path
       style="fill:#2684ff"
       inkscape:connector-curvature="0"
       id="path3823"
       d="M 72.4,35.76 39.8,3.16 36.64,0 V 0 L 12.1,24.54 v 0 L 0.88,35.76 a 3,3 0 0 0 0,4.24 L 23.3,62.42 36.64,75.76 61.18,51.22 61.56,50.84 72.4,40 a 3,3 0 0 0 0,-4.24 z m -35.76,13.32 -11.2,-11.2 11.2,-11.2 11.2,11.2 z"
       class="cls-2" />
    <path
       inkscape:connector-curvature="0"
       style="fill:url(#linearGradient3856)"
       id="path3825"
       d="M 36.64,26.68 A 18.86,18.86 0 0 1 36.56,0.09 l -24.51,24.5 13.34,13.34 z"
       class="cls-3" />
    <path
       inkscape:connector-curvature="0"
       style="fill:url(#linear-gradient-2)"
       id="path3827"
       d="M 47.87,37.85 36.64,49.08 a 18.86,18.86 0 0 1 0,26.68 v 0 L 61.21,51.19 Z"
       class="cls-4" />
  </g>
</svg>
