<svg xmlns="http://www.w3.org/2000/svg" viewBox="0 0 150 150"><defs><style>.cls-1{fill:none;}.cls-1,.cls-2{stroke:#231f20;stroke-miterlimit:10;stroke-width:2px;}.cls-2{fill:#231f20;}</style></defs><g id="Layer_5" data-name="Layer 5"><path class="cls-1" d="M147.45,75A72.45,72.45,0,1,0,75,147.45,72.44,72.44,0,0,0,147.45,75Z"/><circle class="cls-1" cx="118.27" cy="56.31" r="10.89"/><circle class="cls-1" cx="91.64" cy="85.42" r="12.71"/><circle class="cls-1" cx="37.79" cy="73.18" r="10.89"/><circle class="cls-1" cx="52.9" cy="113.56" r="10.89"/><circle class="cls-1" cx="105.49" cy="107.44" r="6.68"/><circle class="cls-2" cx="121.45" cy="81.68" r="6.68"/><circle class="cls-2" cx="63.79" cy="53.47" r="5.2"/><circle class="cls-2" cx="87.95" cy="117.08" r="5.2"/><circle class="cls-1" cx="63.79" cy="92.58" r="6.68"/><circle class="cls-1" cx="78.03" cy="62.29" r="4.72"/><circle class="cls-1" cx="28.02" cy="105.48" r="4.72"/><circle class="cls-1" cx="97.03" cy="38.73" r="4.72"/><circle class="cls-1" cx="59.86" cy="32.69" r="4.72"/><path class="cls-1" d="M37.79,38.73a6.69,6.69,0,1,1,6.68,6.69A6.69,6.69,0,0,1,37.79,38.73Z"/><circle class="cls-1" cx="61.23" cy="75" r="3.54"/><circle class="cls-1" cx="124.99" cy="106.21" r="3.54"/><circle class="cls-1" cx="89.61" cy="51.81" r="2.69"/><circle class="cls-2" cx="98.8" cy="54.5" r="2.69"/><circle class="cls-2" cx="40.49" cy="94.09" r="2.69"/><circle class="cls-2" cx="71.73" cy="41.75" r="2.69"/><circle class="cls-2" cx="55.14" cy="23.59" r="2.69"/><circle class="cls-2" cx="63.18" cy="20.9" r="1.9"/><circle class="cls-2" cx="57.69" cy="65.06" r="1.9"/><circle class="cls-2" cx="66.45" cy="64.64" r="2.54"/><line class="cls-1" x1="41.87" y1="32.58" x2="29.03" y2="18.99"/><line class="cls-1" x1="64.59" y1="32.69" x2="92.31" y2="4.63"/><line class="cls-1" x1="55.79" y1="35.05" x2="50" y2="34.97"/><line class="cls-1" x1="42" y1="45.42" x2="40.49" y2="62.64"/><line class="cls-1" x1="4.98" y1="56.31" x2="27.05" y2="71.46"/><path class="cls-1" d="M57.65,22.62l3.79-1.28Z"/><line class="cls-1" x1="53.46" y1="25.64" x2="47.75" y2="32.88"/><line class="cls-1" x1="63.79" y1="35.31" x2="69.66" y2="40.04"/><line class="cls-1" x1="63.9" y1="64.56" x2="59.32" y2="64.74"/><line class="cls-1" x1="68.99" y1="64.45" x2="73.95" y2="64.45"/><line class="cls-1" x1="81.35" y1="58.93" x2="87.69" y2="53.69"/><line class="cls-1" x1="92.31" y1="51.81" x2="97.14" y2="53.06"/><line class="cls-1" x1="46.5" y1="66.65" x2="59.44" y2="56.31"/><line class="cls-1" x1="61.23" y1="71.46" x2="66.15" y2="65.81"/><line class="cls-1" x1="69.04" y1="88.45" x2="81.2" y2="78.17"/><line class="cls-1" x1="61.23" y1="78.54" x2="62.7" y2="85.89"/><line class="cls-1" x1="68.17" y1="97.61" x2="84.13" y2="113.56"/><line class="cls-1" x1="92.47" y1="114.5" x2="99.61" y2="110.62"/><line class="cls-1" x1="121.45" y1="106.21" x2="112.17" y2="106.21"/><line class="cls-1" x1="124.15" y1="102.78" x2="123.3" y2="88.1"/><line class="cls-1" x1="127.59" y1="108.6" x2="135.11" y2="115.47"/><line class="cls-1" x1="108.25" y1="113.51" x2="99.25" y2="143.29"/><line class="cls-1" x1="56.74" y1="123.75" x2="64.37" y2="146.68"/><line class="cls-1" x1="42" y1="115.56" x2="30.46" y2="109.51"/><line class="cls-1" x1="42" y1="96.32" x2="46.56" y2="104.71"/><line class="cls-1" x1="60.55" y1="98.42" x2="59.27" y2="104.74"/><line class="cls-1" x1="38.77" y1="94.87" x2="31.37" y2="102.15"/><line class="cls-1" x1="43.18" y1="94.09" x2="57.11" y2="94.09"/><line class="cls-1" x1="40.49" y1="91.4" x2="40.49" y2="83.74"/><line class="cls-1" x1="110.54" y1="63.98" x2="100.59" y2="76.39"/><line class="cls-1" x1="104.35" y1="87.15" x2="116.81" y2="79.07"/><line class="cls-1" x1="121.85" y1="66.59" x2="122.05" y2="76.1"/><line class="cls-1" x1="126.57" y1="77.39" x2="146.42" y2="62.76"/><line class="cls-1" x1="105.56" y1="9.29" x2="120.75" y2="45.7"/><line class="cls-1" x1="101.05" y1="41.2" x2="109.69" y2="49.6"/></g></svg>